<svg xmlns="http://www.w3.org/2000/svg" viewBox="0 0 800 500" width="800" height="500">
  <defs>
    <linearGradient id="mouse-body" x1="0%" y1="0%" x2="100%" y2="100%">
      <stop offset="0%" stop-color="#1a1a1a"/>
      <stop offset="100%" stop-color="#0a0a0a"/>
    </linearGradient>
    <linearGradient id="mouse-accent" x1="0%" y1="0%" x2="100%" y2="100%">
      <stop offset="0%" stop-color="#00e5ff"/>
      <stop offset="100%" stop-color="#0099cc"/>
    </linearGradient>
    <filter id="glow" x="-20%" y="-20%" width="140%" height="140%">
      <feGaussianBlur stdDeviation="8" result="blur"/>
      <feComposite in="SourceGraphic" in2="blur" operator="over"/>
    </filter>
  </defs>
  
  <!-- Mouse Body -->
  <path d="M300,100 C200,120 150,200 150,300 C150,400 200,450 400,450 C600,450 650,400 650,300 C650,200 600,120 500,100 C450,90 350,90 300,100 Z" 
        fill="url(#mouse-body)" stroke="#333" stroke-width="2"/>
  
  <!-- Left Button -->
  <path d="M300,100 C250,120 200,150 180,250 L320,250 L320,110 C315,105 310,102 300,100 Z" 
        fill="#222" stroke="#444" stroke-width="1"/>
  
  <!-- Right Button -->
  <path d="M500,100 C550,120 600,150 620,250 L480,250 L480,110 C485,105 490,102 500,100 Z" 
        fill="#222" stroke="#444" stroke-width="1"/>
  
  <!-- Scroll Wheel -->
  <rect x="395" y="150" width="10" height="60" rx="5" fill="#444" stroke="#555" stroke-width="1"/>
  
  <!-- RGB Accent Line -->
  <path d="M180,300 C180,380 220,420 400,420 C580,420 620,380 620,300" 
        fill="none" stroke="url(#mouse-accent)" stroke-width="4" filter="url(#glow)"/>
  
  <!-- Side Buttons -->
  <rect x="180" y="280" width="10" height="20" rx="5" fill="#333"/>
  <rect x="180" y="310" width="10" height="20" rx="5" fill="#333"/>
  
  <!-- DPI Button -->
  <rect x="395" y="230" width="10" height="20" rx="5" fill="#00e5ff" filter="url(#glow)"/>
  
  <!-- USB Cable -->
  <path d="M400,100 L400,50" stroke="#333" stroke-width="8" fill="none"/>
</svg>
